<?xml version="1.0" encoding="utf-8"?>
<!-- Generator: Adobe Illustrator 16.0.0, SVG Export Plug-In . SVG Version: 6.00 Build 0)  -->
<!DOCTYPE svg PUBLIC "-//W3C//DTD SVG 1.1//EN" "http://www.w3.org/Graphics/SVG/1.1/DTD/svg11.dtd">
<svg version="1.1" xmlns="http://www.w3.org/2000/svg" xmlns:xlink="http://www.w3.org/1999/xlink" x="0px" y="0px" width="960px"
	 height="560px" viewBox="0 0 960 560" enable-background="new 0 0 960 560" xml:space="preserve">
<g id="Layer_1">
	<rect x="11" y="12" fill="#3A2713" width="933" height="531"/>
</g>
<g id="Layer_3">
	<path fill="#FFFFFF" stroke="#3A2713" stroke-miterlimit="10" d="M707.5,431.5L571,386c0,0-60.625-10.014-81-10
		c-20.126,0.014-18.042-0.592-38,2c-39.97,5.191-203.5,53.5-203.5,53.5v-280c0,0,77.092-38.48,104.5-43.5
		c30.014-5.498,90.488-16.322,121-16c36.188,0.382,107.521,15.263,143.079,22c21.762,4.123,90.421,37.5,90.421,37.5V431.5z"/>
</g>
<g id="Layer_5">
	<path fill="#FFFFFF" stroke="#3A2713" stroke-miterlimit="10" d="M182.354,31.51c4.016-0.867,7.993,1.479,8.809,5.258
		l25.336,117.295c0.817,3.779-1.837,7.559-5.852,8.426l0,0c-4.016,0.867-7.993-1.479-8.81-5.258L176.501,39.937
		C175.684,36.157,178.338,32.378,182.354,31.51L182.354,31.51z"/>
	<path fill="#FFFFFF" stroke="#3A2713" stroke-miterlimit="10" d="M755.645,40.51c-4.016-0.867-7.992,1.479-8.809,5.258
		L721.5,163.063c-0.817,3.779,1.837,7.559,5.852,8.427l0,0c4.016,0.866,7.993-1.48,8.81-5.259l25.336-117.295
		C762.314,45.157,759.66,41.378,755.645,40.51L755.645,40.51z"/>
	<path fill="#FFFFFF" stroke="#3A2713" stroke-miterlimit="10" d="M268.354,395.51c4.016-0.866,7.992,1.48,8.809,5.259
		l25.336,117.295c0.817,3.779-1.837,7.559-5.852,8.427l0,0c-4.016,0.866-7.993-1.48-8.81-5.259l-25.336-117.295
		C261.684,400.157,264.338,396.378,268.354,395.51L268.354,395.51z"/>
	<path fill="#FFFFFF" stroke="#3A2713" stroke-miterlimit="10" d="M668.645,395.51c-4.016-0.866-7.992,1.48-8.809,5.259
		L634.5,518.063c-0.817,3.779,1.837,7.559,5.852,8.427l0,0c4.016,0.866,7.993-1.48,8.81-5.259l25.336-117.295
		C675.314,400.157,672.66,396.378,668.645,395.51L668.645,395.51z"/>
</g>
<g id="Layer_2">
	<path fill="#FFFFFF" stroke="#3A2713" stroke-miterlimit="10" d="M330.576,424.497c1.571,6.438-2.375,12.932-8.813,14.503
		l-70.919,17.307c-6.438,1.571-12.932-2.375-14.503-8.812l-74.917-306.991c-1.571-6.438,2.375-12.932,8.813-14.503l70.919-17.307
		c6.438-1.571,12.932,2.375,14.503,8.813L330.576,424.497z"/>
	<path fill="#FFFFFF" stroke="#3A2713" stroke-miterlimit="10" d="M613.424,426.497c-1.57,6.438,2.375,12.932,8.812,14.503
		l70.92,17.307c6.438,1.571,12.932-2.375,14.502-8.812l74.918-306.991c1.571-6.438-2.375-12.932-8.812-14.503l-70.92-17.307
		c-6.438-1.571-12.932,2.375-14.502,8.813L613.424,426.497z"/>
</g>
<g id="Layer_4">
	<path fill="#FFFFFF" stroke="#3A2713" stroke-miterlimit="10" d="M344.796,444.791c1.487,5.89-2.083,11.871-7.972,13.358
		l-87.262,22.032c-5.891,1.487-11.872-2.082-13.358-7.973l0,0c-1.487-5.89,2.082-11.871,7.972-13.358l87.262-22.032
		C337.329,435.331,343.309,438.901,344.796,444.791L344.796,444.791z"/>
	<path fill="#FFFFFF" stroke="#3A2713" stroke-miterlimit="10" d="M254.796,92.791c1.487,5.89-2.083,11.871-7.972,13.358
		l-87.262,22.032c-5.891,1.487-11.872-2.082-13.358-7.973l0,0c-1.487-5.89,2.082-11.871,7.972-13.358l87.262-22.032
		C247.328,83.331,253.309,86.901,254.796,92.791L254.796,92.791z"/>
	<path fill="#FFFFFF" stroke="#3A2713" stroke-miterlimit="10" d="M687.204,94.791c-1.487,5.89,2.083,11.871,7.972,13.358
		l87.262,22.032c5.891,1.487,11.872-2.082,13.358-7.973l0,0c1.487-5.89-2.082-11.871-7.972-13.358l-87.262-22.032
		C694.672,85.331,688.691,88.901,687.204,94.791L687.204,94.791z"/>
	<path fill="#FFFFFF" stroke="#3A2713" stroke-miterlimit="10" d="M600.204,446.791c-1.487,5.89,2.083,11.871,7.972,13.358
		l87.262,22.032c5.891,1.487,11.872-2.082,13.358-7.973l0,0c1.487-5.89-2.082-11.871-7.972-13.358l-87.262-22.032
		C607.672,437.331,601.691,440.901,600.204,446.791L600.204,446.791z"/>
</g>
<g id="Layer_7">

		<rect x="463" y="114.047" transform="matrix(0.0013 -1 1 0.0013 290.3528 654.8154)" fill="#3A2713" stroke="#FFFFFF" stroke-miterlimit="10" width="20" height="136"/>
</g>
<g id="Layer_6">
	<rect x="462" y="125" fill="#3A2713" width="20" height="209"/>
</g>
</svg>
